<?xml version="1.0" encoding="utf-8"?>
<!-- Generator: Adobe Illustrator 22.1.0, SVG Export Plug-In . SVG Version: 6.00 Build 0)  -->
<svg version="1.1" id="Layer_1" xmlns="http://www.w3.org/2000/svg" xmlns:xlink="http://www.w3.org/1999/xlink" x="0px" y="0px"
	 viewBox="0 0 213.1 207.4" style="enable-background:new 0 0 213.1 207.4;" xml:space="preserve">
<style type="text/css">
	.st0{fill:url(#SVGID_1_);}
	.st1{fill:#9C5140;}
	.st2{fill:url(#SVGID_2_);}
	.st3{fill:url(#SVGID_3_);}
	.st4{fill:url(#SVGID_4_);}
	.st5{fill:url(#SVGID_5_);}
	.st6{fill:url(#SVGID_6_);}
	.st7{fill:url(#SVGID_7_);}
	.st8{fill:url(#SVGID_8_);}
	.st9{opacity:0.4;}
	.st10{fill:url(#SVGID_9_);}
	.st11{fill:url(#SVGID_10_);}
	.st12{fill:url(#SVGID_11_);}
	.st13{fill:#0D060E;}
	.st14{fill:url(#SVGID_12_);}
	.st15{fill:#AA272C;}
	.st16{fill:url(#SVGID_13_);}
	.st17{fill:url(#SVGID_14_);}
	.st18{fill:url(#SVGID_15_);}
	.st19{fill:url(#SVGID_16_);}
	.st20{fill:#731C1F;}
	.st21{fill:url(#SVGID_17_);}
	.st22{fill:url(#SVGID_18_);}
	.st23{fill:#7C3930;}
	.st24{fill:#FFFFFF;}
	.st25{fill:url(#SVGID_19_);}
	.st26{fill:url(#SVGID_20_);}
	.st27{fill:url(#SVGID_21_);}
	.st28{fill:url(#SVGID_22_);}
</style>
<g>
	<linearGradient id="SVGID_1_" gradientUnits="userSpaceOnUse" x1="100.762" y1="182.022" x2="100.762" y2="165.0719">
		<stop  offset="0" style="stop-color:#924B3C"/>
		<stop  offset="1" style="stop-color:#753027"/>
	</linearGradient>
	<path class="st0" d="M142.4,188.4c-7.5-1.8-13.8-4.2-17.3-11.6c-5.5-11.9-2.9-23.2-2.9-35.7H78.7c0,12.5,2.6,23.8-2.9,35.7
		c-3.5,7.4-9.8,9.8-17.3,11.6h0.6c12.7,0,24.8,4.3,37.2,5.4c23.6,2.1,29.7-4.2,46.7-5.1L142.4,188.4z"/>
	<path class="st1" d="M146.6,115.1c-0.6-2.7-0.9-3.7-0.3-7.1c0.6-3.4,0.1-8.9-0.6-12c-0.7-3.1-3.1-21-12.6-26.3
		c0,0-22.9-6.8-41.6,1.8L75.5,86.1l-4.8,9.2l1.2,14.9c-0.8,4-1.5,9.1-1.5,14.9c0,4.4,0.4,8.3,1,11.6c0.6,0.9,1.2,2,1.8,3.2
		c0.6,1.2,1.1,2.4,1.4,3.4c1.1,2.2,7.7,15.9,23.9,21c2.4,0.7,21.4,9.8,30.8-3.3c5.9-8.3,17-28.3,17.7-39.6
		C147,121.5,147.2,117.8,146.6,115.1z"/>
	<linearGradient id="SVGID_2_" gradientUnits="userSpaceOnUse" x1="112.2953" y1="54.1809" x2="112.2953" y2="99.6558">
		<stop  offset="0" style="stop-color:#CB6C4A"/>
		<stop  offset="1" style="stop-color:#9C5140"/>
	</linearGradient>
	<path class="st2" d="M81.6,94.5c0,0,2-6.3,3.8-9.5c1.8-3.2,0-15.3,29.5-15.1c0,0,13.7,0,17.6,2.2c0,0,8.6,7.3,10.2,22.8
		c0,0.3,0.1,0.5,0.1,0.8c1.4,16.1-19.2,3-19.2,3l-18.8,1L81.6,94.5z"/>
	
		<radialGradient id="SVGID_3_" cx="-372.5724" cy="32.0861" r="40.2172" gradientTransform="matrix(0.2884 0 0 0.2588 222.1892 134.5984)" gradientUnits="userSpaceOnUse">
		<stop  offset="0" style="stop-color:#CB6C4A"/>
		<stop  offset="1" style="stop-color:#9C5140"/>
	</radialGradient>
	<path class="st3" d="M114.7,132.5c-6.4,0-11.6,4.7-11.6,10.4c0,5.7,5.2,10.4,11.6,10.4c6.4,0,11.6-4.7,11.6-10.4
		C126.3,137.2,121.1,132.5,114.7,132.5z"/>
	
		<radialGradient id="SVGID_4_" cx="1166.2667" cy="-708.1798" r="40.2242" gradientTransform="matrix(0.2913 -0.443 0.3124 0.2054 28.6533 788.2162)" gradientUnits="userSpaceOnUse">
		<stop  offset="0" style="stop-color:#CB6C4A"/>
		<stop  offset="1" style="stop-color:#9C5140"/>
	</radialGradient>
	<path class="st4" d="M146.6,115.1c-0.6-2.7-0.9-3.7-0.3-7.1c0-0.1,0-0.1,0-0.2c-4.3,1.8-8.5,5.2-11.7,10.1
		c-6.5,9.8-6.1,21.5,0.9,26.1c1,0.7,2.1,1.1,3.2,1.4c4.2-8.3,7.9-17.4,8.4-23.8C147,121.5,147.2,117.8,146.6,115.1z"/>
	
		<radialGradient id="SVGID_5_" cx="1960.4423" cy="-619.4112" r="40.2228" gradientTransform="matrix(-0.1882 -0.4957 0.3495 -0.1327 666.5742 1015.695)" gradientUnits="userSpaceOnUse">
		<stop  offset="0" style="stop-color:#CB6C4A"/>
		<stop  offset="1" style="stop-color:#9C5140"/>
	</radialGradient>
	<path class="st5" d="M88.7,146c7.8-2.9,10.7-14.3,6.5-25.3c-4.2-11-13.9-17.5-21.6-14.6c-0.7,0.3-1.3,0.6-1.9,0.9l0.2,3.1
		c0,0-1.5,11-1.5,14.9c0,3.9,4,11.6,4,11.6c0.9,1.3,1.2,2.8,2.1,4.2c0,0,1.1,2,3.2,4.9C82.7,146.9,85.8,147.1,88.7,146z"/>
	<linearGradient id="SVGID_6_" gradientUnits="userSpaceOnUse" x1="92.5405" y1="105.7454" x2="92.5405" y2="95.0398">
		<stop  offset="0" style="stop-color:#9C5140"/>
		<stop  offset="1" style="stop-color:#81332B"/>
	</linearGradient>
	<path class="st6" d="M79.5,108.4c0,0-5.1-9.2,2.8-14.3c0,0,8.6-3.3,14.6-0.7c5.9,2.5,9.7,5.5,9.7,5.5s2.2,10.1-1.8,13.7l-10.3,0.3
		c0,0-7.3-1.5-7.7-1.5c-0.4,0-3.7-0.4-3.7-0.4l-2.2-0.7L79.5,108.4z"/>
	<linearGradient id="SVGID_7_" gradientUnits="userSpaceOnUse" x1="133.6511" y1="105.7454" x2="133.6511" y2="95.0395">
		<stop  offset="0" style="stop-color:#9C5140"/>
		<stop  offset="1" style="stop-color:#81332B"/>
	</linearGradient>
	<path class="st7" d="M122.8,112.6c0,0-2.2-9.2,0.6-13.7l4.3-4.3l5.1-2.1h4l3,0.6l2.4,1.2l2.8,2.4c0,0,2.4,11.9-3.9,14.4
		c-6.2,2.5-15.3,1.5-15.3,1.5H122.8z"/>
	<linearGradient id="SVGID_8_" gradientUnits="userSpaceOnUse" x1="114.5907" y1="144.029" x2="114.5907" y2="137.0089">
		<stop  offset="0" style="stop-color:#9C5140"/>
		<stop  offset="1" style="stop-color:#81332B"/>
	</linearGradient>
	<path class="st8" d="M104,134c0,0,1.3-1.2,4.5-0.9c3.1,0.3,4.5,2.5,8.2,2.1c3.7-0.4,4.6-2.1,4.6-2.1s3-1,3.9,0.6
		c0,0-1.2,2.4-1.9,2.7c0,0-2.5,4.3-8.3,4.2c-5.8-0.1-8.6-1.9-10.1-4.3C104.8,136.2,104,135,104,134z"/>
	<g class="st9">
		<linearGradient id="SVGID_9_" gradientUnits="userSpaceOnUse" x1="117.3453" y1="140.7948" x2="115.5611" y2="117.0044">
			<stop  offset="0" style="stop-color:#CB6C4A"/>
			<stop  offset="1" style="stop-color:#9C5140"/>
		</linearGradient>
		<path class="st10" d="M117.9,133.2c0,0-6.2,1.4-6.3-6.2c-0.1-7.6-0.7-13.4-0.7-13.4l8.2-1.6c0,0,0.1,9.6,1.3,13.3
			C121.4,129.1,122.5,132.4,117.9,133.2z"/>
	</g>
	<linearGradient id="SVGID_10_" gradientUnits="userSpaceOnUse" x1="104.513" y1="129.9109" x2="106.4451" y2="131.0999">
		<stop  offset="0" style="stop-color:#CB6C4A"/>
		<stop  offset="1" style="stop-color:#9C5140"/>
	</linearGradient>
	<path class="st11" d="M107.4,129.7c-1.1-2.8-3.7,2.2-3.1,2.6C105.9,133.2,108,131.1,107.4,129.7z"/>
	<linearGradient id="SVGID_11_" gradientUnits="userSpaceOnUse" x1="125.0103" y1="130.1519" x2="123.7217" y2="130.6475">
		<stop  offset="0" style="stop-color:#CB6C4A"/>
		<stop  offset="1" style="stop-color:#9C5140"/>
	</linearGradient>
	<path class="st12" d="M125,132.7c-1.7-0.1-1.8-3.1-2-4.4c1.4,0.6,1.8,2.7,2.1,4L125,132.7z"/>
	<path class="st13" d="M111.3,135.7c-1.6-0.8-3.8-1-3.8-1C108.3,136.9,111.3,135.7,111.3,135.7z M121.4,134.8l-1.1,0.9l-0.4,0.4
		c2.5,0.1,2.6-1.3,2.6-1.3L121.4,134.8z"/>
	<linearGradient id="SVGID_12_" gradientUnits="userSpaceOnUse" x1="114.463" y1="133.6881" x2="114.463" y2="128.6328">
		<stop  offset="0" style="stop-color:#6E2D21"/>
		<stop  offset="1" style="stop-color:#9C5140"/>
	</linearGradient>
	<path class="st14" d="M103.9,134.1c-0.2-1.5,0.5-3,1.2-4.4c0,0,0-0.1-0.1,0c-0.8,1.3-1.7,3-1.5,4.6c0.3,1.8,1.8,2.4,3.4,2.7
		c0,0,0,0,0,0C105.5,136.6,104.1,135.7,103.9,134.1z M109.5,134.8c-1.3-0.4-2.7-0.4-4,0.1c0,0,0,0,0,0c1.3-0.4,2.6-0.2,3.9,0.2
		c1.3,0.4,2.3,1.2,3.5,1.8c0.1,0,0.2-0.1,0.1-0.1C112.1,135.8,110.7,135.2,109.5,134.8z M123.5,134.8c-0.7-0.5-1.9-0.5-2.7,0
		c0.3-0.5,0.5-1,0.7-1.6c0,0-0.1-0.1-0.1,0c-0.7,1.5-1.6,2.8-3.1,3.5c-1.6,0.8-3.4,0.7-5,0.3c-0.1,0-0.1,0.1,0,0.1
		c1.7,0.5,3.4,0.6,5.1-0.1c0.8-0.3,1.4-0.9,2-1.5c0,0,0,0,0,0c0.5-0.3,0.8-0.5,1.3-0.7C122.2,134.7,122.9,134.7,123.5,134.8
		C123.5,134.9,123.6,134.9,123.5,134.8z M124.6,129.5c0-0.1-0.1,0-0.1,0.1c0.3,1.1,0.6,2.1,0.5,3.2c-0.1,1.4-0.9,2.6-2,3.4
		c0,0,0,0.1,0,0.1c1.2-0.7,2-1.6,2.2-3C125.5,131.9,125.2,130.6,124.6,129.5z"/>
	<g>
		<path class="st15" d="M100.7,147c0,0,3.9,2.9,5.5,4.5c1.7,1.5,4.3,3.3,8.3,3c4-0.3,6.2-1.6,7.1-3.1c0.8-1.5,4.3-5.3,4.3-5.3
			s-4,0.7-4.4,0.7c-0.3,0-6,0-6.4,0.1L100.7,147z"/>
		<radialGradient id="SVGID_13_" cx="113.3855" cy="150.2991" r="9.4218" gradientUnits="userSpaceOnUse">
			<stop  offset="0" style="stop-color:#AA272C"/>
			<stop  offset="1" style="stop-color:#AA272C"/>
		</radialGradient>
		<path class="st16" d="M121.6,146.8c-0.3,0-6,0-6.4,0.1l-14.5,0.1c0,0,2.1,1.6,3.8,3c1.7-0.2,12.5-1.4,18.3-0.5c0,0,0.1,0,0.1,0
			c1.3-1.6,3-3.5,3-3.5S122,146.8,121.6,146.8z M107.7,152.6c1.6,1.1,3.9,2.1,6.9,1.9c4-0.3,6.2-1.6,7.1-3.1c0,0-2.7,1.6-6.2,2.2
			C112.3,154.1,108.5,152.9,107.7,152.6z"/>
		
			<radialGradient id="SVGID_14_" cx="-570.3198" cy="101.9059" r="29.1452" gradientTransform="matrix(0.2587 4.500000e-03 -4.500000e-03 0.2587 262.7086 128.5219)" gradientUnits="userSpaceOnUse">
			<stop  offset="0" style="stop-color:#AB2C2E"/>
			<stop  offset="1" style="stop-color:#AA272C"/>
		</radialGradient>
		<path class="st17" d="M107.3,150.6c0,0,8.6-1.6,13.9-0.3l-0.7,1.3c0,0-4.2,2.7-11.5,1.1L107.3,150.6z"/>
		<radialGradient id="SVGID_15_" cx="113.1922" cy="146.322" r="10.8906" gradientUnits="userSpaceOnUse">
			<stop  offset="0" style="stop-color:#AA272C"/>
			<stop  offset="1" style="stop-color:#AA272C"/>
		</radialGradient>
		<path class="st18" d="M126.5,145.4c-1,0.6-2.1,1.2-3.3-0.1c-1.2-1.3-3.5-1.8-4.6-1.7c-1,0.1-3,1.4-3,1.4s-1.5-1.2-4.3-1.1
			c-2.9,0.1-8.1,2.4-9.7,2.5C100,146.5,98,145,98,145c3.5,4.3,9.9,2.7,14.8,3l0.3,0l0.2,0.2c0.8,0.4,1.7,0.4,2.5,0.7
			c0.6-0.1,1.2-0.3,1.8-0.7l0.1,0c2.3-1.2,3.7-0.2,5.5-0.8c2-0.5,4-1.8,5.1-3.7C128.4,143.8,127.5,144.8,126.5,145.4z"/>
		<radialGradient id="SVGID_16_" cx="113.0577" cy="146.3169" r="8.314" gradientUnits="userSpaceOnUse">
			<stop  offset="0" style="stop-color:#AB2C2E"/>
			<stop  offset="1" style="stop-color:#AA272C"/>
		</radialGradient>
		<path class="st19" d="M115.9,148.5c-0.4-0.2-0.8-0.3-1.2-0.3c-0.4-0.1-0.8-0.2-1.1-0.3l-0.2-0.2c-0.1-0.1-0.2-0.1-0.3-0.1l-0.3,0
			c-0.5,0-1,0-1.6,0c-0.7,0-1.5,0-2.2,0l0,0c-0.7,0-1.5,0-2.3,0c-1.8,0-3.6-0.1-5.2-0.7c0,0,0,0,0.1,0c0.7,0,2-0.4,3.6-1
			c2-0.7,4.5-1.5,6.1-1.5c0.1,0,0.1,0,0.2,0c2.5,0,3.8,1,3.8,1c0.1,0.1,0.2,0.1,0.3,0.1c0.1,0,0.2,0,0.3-0.1c0.5-0.4,2-1.3,2.8-1.4
			c0.1,0,0.1,0,0.2,0c1,0,2.9,0.5,4,1.6c0.6,0.6,1.1,0.9,1.8,0.9c-0.5,0.2-1,0.4-1.5,0.5c0,0,0,0,0,0c-0.5,0.2-1,0.2-1.4,0.2
			c-0.2,0-0.4,0-0.7,0c-0.2,0-0.5,0-0.8,0c-0.7,0-1.6,0.1-2.7,0.6c-0.1,0-0.2,0-0.2,0.1C116.9,148.3,116.4,148.5,115.9,148.5
			L115.9,148.5z"/>
		<path class="st20" d="M112.8,147.9c-4.9-0.5-11,1.4-14.7-2.9c0,0-0.1,0,0,0c1.6,2,4.2,2.9,6.7,3.1c2.7,0.3,5.4-0.1,8.1,0
			C112.9,148.1,112.9,147.9,112.8,147.9z M128.3,143.8c-0.6,0.9-1.3,1.7-2.2,2.3c-0.9,0.6-1.8,1-2.9,1.3c-0.9,0.3-1.8,0.2-2.8,0.2
			c-0.8,0-1.5,0.2-2.2,0.5c0.1-0.1,0.3-0.3,0.4-0.5c0,0,0-0.1-0.1-0.1c-0.8,0.5-1.4,1.1-2.3,1.3c-0.5,0.1-0.8,0-1.2-0.1
			c-0.5-0.1-1.1-0.2-1.6-0.4c0,0,0,0,0,0c0.6,0.2,1.2,0.4,1.7,0.5c0.5,0.1,0.8,0.4,1.3,0.3c0.6-0.1,1.2-0.4,1.6-0.9
			c1-0.3,1.9-0.4,3-0.3c1,0,1.8-0.1,2.7-0.4C125.6,146.9,127.6,145.7,128.3,143.8C128.4,143.8,128.4,143.7,128.3,143.8z"/>
	</g>
	<radialGradient id="SVGID_17_" cx="92.4359" cy="94.9364" r="10.4058" gradientUnits="userSpaceOnUse">
		<stop  offset="0" style="stop-color:#0D060E"/>
		<stop  offset="1" style="stop-color:#0D060E"/>
	</radialGradient>
	<path class="st21" d="M78.3,97.3c2-0.9,4.9-1.9,8.3-2.3c6.8-0.8,12.3,1.3,14.9,2.5c0,0,3.2,1.4,5.2,1.4c0,0-1.8-4.4-3.2-5.2
		C102.1,92.9,88.2,86.2,78.3,97.3z"/>
	
		<radialGradient id="SVGID_18_" cx="3173.4126" cy="94.9364" r="10.8616" gradientTransform="matrix(-0.7413 0 0 1 2486.7192 0)" gradientUnits="userSpaceOnUse">
		<stop  offset="0" style="stop-color:#0D060E"/>
		<stop  offset="1" style="stop-color:#0D060E"/>
	</radialGradient>
	<path class="st22" d="M145.3,97.3c-1.2-0.9-3.7-2.6-7.4-2.9c-5.6-0.6-9.7,2.4-10.7,3.1c0,0-2.5,1.4-4,1.4c0,0,1.4-4.4,2.5-5.2
		C126.8,92.9,137.6,86.2,145.3,97.3z"/>
	<g>
		<path class="st23" d="M81.1,110.2c0.8-3.4,4-5.6,8-6.3c1.8-0.3,3.7-0.3,5.6,0c2.7,0.5,4.8,1.8,6.5,3.5c0,0,0.1,0,0.1,0
			c-1.6-1.7-4-3.1-6.5-3.6c-1.9-0.3-3.8-0.4-5.7-0.1c-1.9,0.3-3.8,1-5.2,2.1C82.2,106.8,81.3,108.5,81.1,110.2
			C81.1,110.2,81.1,110.2,81.1,110.2L81.1,110.2z"/>
		<path class="st13" d="M100.4,109.2c-0.8-0.7-3.5-3.9-8.5-4.2c-0.1-1,0.2-1.9,0.2-1.9c-0.5,0.7-0.6,1.3-0.6,1.9c-0.5,0-1,0-1.5,0
			c-1,0.1-1.9,0.3-2.6,0.6c-0.5-1-0.5-2.1-0.5-2.1c-0.3,0.8-0.2,1.6,0,2.3c-1.1,0.5-2,1.1-2.7,1.8c-2-0.7-2.6-2.2-2.6-2.2
			c0.2,1.3,1.2,2.2,2.1,2.8c-0.7,0.8-1.1,1.6-1.4,2.1c-1.9-0.4-2.9-1.8-2.9-1.8c0.5,1.3,1.7,2.1,2.7,2.5c5.4,6.9,16.3,3.4,16.3,3.4
			l6.1-1.5C102.3,112.1,101.4,109.9,100.4,109.2z"/>
		<path class="st24" d="M83.7,111.3c3.1,4.9,12.4,3.7,17.4,2.2l3.5-0.9c-3.9-1.5-6-5.6-10.8-6.5c-5.2-0.8-8.7,1-10.6,4.6L83.7,111.3
			z"/>
		<g>
			<g>
				<path class="st13" d="M96.4,110.1c0-1.3-0.5-2.4-1.4-3.3c-0.6-0.3-1.2-0.5-1.9-0.7c-1.9-0.4-3.5-0.2-4.9,0.3
					c-1.1,0.9-1.8,2.2-1.8,3.6c0,2.2,1.6,4.1,3.8,4.6c0.6,0.1,1.2,0.1,1.8,0.1C94.4,114.5,96.4,112.5,96.4,110.1z"/>
				<linearGradient id="SVGID_19_" gradientUnits="userSpaceOnUse" x1="91.3339" y1="113.7712" x2="91.3339" y2="106.9961">
					<stop  offset="5.780350e-03" style="stop-color:#2F1E16"/>
					<stop  offset="1" style="stop-color:#0D060E"/>
				</linearGradient>
				<path class="st25" d="M86.9,110.1c0,2.3,2,4.2,4.4,4.2c2.5,0,4.4-1.9,4.4-4.2c0-2-1.5-3.6-3.4-4.1c-0.5-0.1-1-0.1-1.5-0.1
					C88.6,106.2,86.9,108,86.9,110.1z"/>
				<path class="st13" d="M94,110.1c0,1.4-1.2,2.5-2.6,2.5c-1.4,0-2.6-1.1-2.6-2.5c0-1.4,1.2-2.5,2.6-2.5
					C92.8,107.7,94,108.8,94,110.1z"/>
				<linearGradient id="SVGID_20_" gradientUnits="userSpaceOnUse" x1="91.3341" y1="110.4257" x2="91.3341" y2="112.1822">
					<stop  offset="0" style="stop-color:#0D060E"/>
					<stop  offset="1" style="stop-color:#75716F"/>
				</linearGradient>
				<path class="st26" d="M93.2,110.1c0,1-0.8,1.7-1.9,1.7c-1,0-1.9-0.8-1.9-1.7c0-1,0.8-1.7,1.9-1.7
					C92.4,108.4,93.2,109.2,93.2,110.1z"/>
				<path class="st24" d="M92.4,108.1c0,0.6-0.5,1-1.1,1c-0.6,0-1.1-0.5-1.1-1c0-0.6,0.5-1,1.1-1C91.9,107.1,92.4,107.5,92.4,108.1z
					"/>
				<path class="st24" d="M91.9,112.5c0,0.3-0.2,0.5-0.5,0.5c-0.3,0-0.5-0.2-0.5-0.5c0-0.3,0.2-0.5,0.5-0.5
					C91.6,112.1,91.9,112.3,91.9,112.5z"/>
			</g>
		</g>
		<path class="st13" d="M104.6,112.6c-4-1.8-6.2-5.9-10.9-6.7c-2.2-0.3-4.5-0.2-6.5,0.7c-2,0.9-3.1,2.5-4,4.1c0,0,0,0,0,0
			c0.9-1.6,2.3-3,4.1-3.8c2-0.9,4.6-1,6.8-0.5C98.6,107.3,100.5,111.2,104.6,112.6C104.6,112.7,104.6,112.6,104.6,112.6z
			 M91.9,114.8c0,0-0.1-0.1-0.1-0.1c-0.1,0-0.1,0-0.1,0.1c-3.3-0.1-6.3-1.1-7.9-3.5c0,0,0,0,0,0c1.6,2.5,4.6,3.5,7.9,3.6
			c0,0,0.1,0.1,0.1,0.1C91.8,115,91.9,114.9,91.9,114.8c3.2,0.2,6.6-0.5,9.2-1.3c0,0,0,0,0,0C98.5,114.3,95.1,114.9,91.9,114.8z"/>
	</g>
	<g>
		<path class="st23" d="M142.6,110.1c-0.7-3.4-3.4-5.6-6.8-6.4c-1.5-0.3-3.2-0.3-4.7,0c-2.3,0.5-4,1.8-5.5,3.5c0,0-0.1,0,0,0
			c1.4-1.7,3.4-3.2,5.5-3.6c1.6-0.4,3.2-0.4,4.8-0.1c1.6,0.3,3.2,1,4.4,2.1C141.6,106.7,142.4,108.4,142.6,110.1
			C142.6,110.1,142.6,110.2,142.6,110.1L142.6,110.1z"/>
		<path class="st13" d="M126.2,109.1c0.7-0.7,3-3.9,7.1-4.2c0.1-1-0.1-2-0.1-2c0.4,0.7,0.5,1.3,0.5,1.9c0.4,0,0.8,0,1.3,0
			c0.8,0.1,1.6,0.3,2.2,0.6c0.4-1,0.4-2.1,0.4-2.1c0.2,0.8,0.2,1.6,0,2.3c0.9,0.5,1.7,1.1,2.2,1.8c1.7-0.7,2.2-2.2,2.2-2.2
			c-0.2,1.3-1,2.2-1.8,2.8c0.6,0.8,1,1.6,1.2,2.1c1.6-0.4,2.4-1.8,2.4-1.8c-0.4,1.3-1.4,2.1-2.3,2.5c-4.6,7-13.7,3.4-13.7,3.4
			l-5.1-1.5C124.6,112.1,125.4,109.9,126.2,109.1z"/>
		<path class="st24" d="M140.4,111.3c-2.6,5-10.5,3.8-14.7,2.2l-3-0.9c3.3-1.5,5.1-5.6,9.1-6.5c4.4-0.9,7.3,1,8.9,4.6L140.4,111.3z"
			/>
		<g>
			<g>
				<path class="st13" d="M136.1,110.1c0-1.8-1-3.4-2.5-4.2c-0.7-0.1-1.5,0-2.3,0.2c-2.1,0.5-3.5,2.2-4.9,3.9c0,0,0,0.1,0,0.1
					c0,2,1.3,3.7,3.1,4.4c0.8,0.2,1.6,0.3,2.4,0.3C134.2,114.5,136.1,112.5,136.1,110.1z"/>
				<linearGradient id="SVGID_21_" gradientUnits="userSpaceOnUse" x1="131.2492" y1="113.7619" x2="131.2492" y2="106.9415">
					<stop  offset="5.780350e-03" style="stop-color:#2F1E16"/>
					<stop  offset="1" style="stop-color:#0D060E"/>
				</linearGradient>
				<path class="st27" d="M131.2,114.3c2.4,0,4.3-1.9,4.3-4.2c0-2-1.5-3.7-3.4-4.1c-0.3,0-0.5,0.1-0.8,0.1c-1.8,0.4-3,1.7-4.2,3.1
					c-0.1,0.3-0.1,0.6-0.1,0.9C127,112.4,128.9,114.3,131.2,114.3z"/>
				<path class="st13" d="M133.8,110.1c0,1.4-1.1,2.5-2.5,2.5c-1.4,0-2.5-1.1-2.5-2.5c0-1.4,1.1-2.5,2.5-2.5
					C132.6,107.6,133.8,108.7,133.8,110.1z"/>
				<linearGradient id="SVGID_22_" gradientUnits="userSpaceOnUse" x1="131.2494" y1="110.3942" x2="131.2494" y2="112.1623">
					<stop  offset="0" style="stop-color:#0D060E"/>
					<stop  offset="1" style="stop-color:#75716F"/>
				</linearGradient>
				<path class="st28" d="M133,110.1c0,1-0.8,1.8-1.8,1.8c-1,0-1.8-0.8-1.8-1.8c0-1,0.8-1.8,1.8-1.8
					C132.2,108.3,133,109.1,133,110.1z"/>
				<path class="st24" d="M132.3,108c0,0.6-0.5,1-1,1c-0.6,0-1-0.5-1-1c0-0.6,0.5-1,1-1C131.8,107,132.3,107.5,132.3,108z"/>
				<path class="st24" d="M131.7,112.5c0,0.3-0.2,0.5-0.5,0.5c-0.3,0-0.5-0.2-0.5-0.5c0-0.3,0.2-0.5,0.5-0.5
					C131.5,112,131.7,112.3,131.7,112.5z"/>
			</g>
		</g>
		<path class="st13" d="M122.7,112.6c3.4-1.8,5.2-6,9.3-6.7c1.9-0.3,3.8-0.2,5.5,0.7c1.7,0.9,2.6,2.5,3.3,4.1c0,0,0,0.1,0,0
			c-0.7-1.6-1.9-3-3.5-3.8c-1.7-1-3.8-1-5.7-0.5C127.8,107.3,126.1,111.2,122.7,112.6C122.7,112.6,122.7,112.6,122.7,112.6z
			 M133.4,114.8c0,0,0.1-0.1,0.1-0.1c0.1,0,0.1,0,0.1,0.1c2.8-0.1,5.3-1.1,6.7-3.5c0,0,0,0,0,0c-1.3,2.6-3.9,3.5-6.7,3.6
			c0,0-0.1,0.1-0.1,0.1C133.5,115,133.5,114.9,133.4,114.8c-2.7,0.2-5.6-0.5-7.8-1.3c0,0,0,0,0,0
			C127.9,114.2,130.7,114.9,133.4,114.8z"/>
	</g>
	<path d="M202.1,85c-0.1-0.1-0.3-0.1-0.3,0c-0.2,0.1-0.3,0.3-0.5,0.5c-1.8,3-1.9,3.1-3.8,0.2c-1.6-2.3-3.5-1-5.7-0.5
		c1.8-2.3,3.1-4.5,0.6-7.1c3.8-0.2,3.8-2.8,4.4-5.1c0.2-0.9-0.3-2,1-2.6c0.4-0.2,0.3-1.1-0.2-1.2c-1.3-0.4-2.4-1.5-3.9-1
		c-1.4,0.4-2,1.2-2,2.4c-1.6-1.4-1-2.1,1.1-2.8c2.7-1,4.6-3.3,7.4-4.3c-1.3-0.4-2.3,0.4-3.4,0.9c-0.9,0.4-1.6,1.6-2.8,0.6
		c-0.7,0.2-1.5,0.9-2.2,0.2c-0.7-0.8,0-1.6,0.6-2.3c0.8-0.9,2.1-1.2,2.9-2c-1.2-0.4-2.3,0.2-3.4,0.5c-0.9,0.3-1.7,0.7-2.7,0.4
		c2.1-1.2,4.1-2.5,6.3-3.7c2-1.1,3.4-0.8,4.3,0.7c0.5-1.7-0.5-2.3-2.1-2.1c-1.3,0.2-2.6,0.5-3.8,0.7c-1.3,0.3-2-0.1-2.2-1.4
		c-0.2-1.4-0.3-2.8-1.2-4c-1.1-1.5-2.7-2.3-5.1-2.4c1.4-1,2.6-1.1,3.9-0.9c-1-1.5-2.5-0.9-3.7-0.5c-2.5,0.9-4.9,1.3-7.4,0.4
		c0.4-1.3,0.9-1.7,2.5-1.1c2.8,1.1,4.8,0.3,6.9-2c0.3-0.4,0.6-0.8,0.9-1.1c0.8-1,1.5-2.3,3.1-1.7c1.4,0.5,1.3,1.9,1.2,3.1
		c0,0.4,0,0.8,0,1.4c1.2-1.3,1.6-2.6,1.7-4c0.1-1.7-0.1-3.2-2.1-4c-2-0.8-3.6-0.4-5.2,0.9c-0.8,0.7-1,2-2.4,2.1
		c-0.4,0.5-0.9,1-1,1.5c-0.3,0.8-0.1,1.9-1.5,1.8c-1.2-0.1-1.7-0.9-1.9-1.9c-1.3-1.3-1.3-2.9-1.2-4.5c0.1-1.3,1.2-1.6,2.4-1.3
		c1.3,0.3,0.5,1.2,0.3,1.8c-0.2,0.6-0.5,1.1-0.7,1.7c0.5-0.1,0.9-0.1,1.3-0.2c0.2-0.2,0.5-0.4,0.7-0.5c0.3-1.4,1.7-2.5,1.8-4
		c0.3-3.2-0.4-5.3-4.1-5.1c0.3-1.4,0.7-2.8,1-4.2c0.2-0.7,0.5-1.4,1.1-1.9c0.6-0.5,1.2-0.7,2-0.2c1.1,0.7,0.3,1.5-0.1,2.3
		c1.4,0,2.2-0.6,2.4-1.8c0.1-1.3-0.5-2.3-1.8-2.7c-2.5-0.8-4.3,0.5-5.7,2.3c-0.8-1-0.2-2.1-0.6-3.2c-0.5-1.4-1.2-1.8-2.5-1.8
		c-1.8,0-3.6-0.1-5.4,0.1c-1.8,0.2-3.1,1.8-2.9,3.3c0.1,1.3,0.9,1.9,2.4,1.6c-1.8-1.2-1.5-2.5,0.6-3.4c1.2-0.6,2.1,0,3,0.6
		c0.7,0.6,1.3,1.3,1,2.3c-0.3,1-1.2,1.5-2.3,1.5c-1.8,0-3.6-0.1-5.3-0.6c-0.7-0.2-1.4-0.6-1.5-1.3c-0.4-2.8-0.3-5.7,0.6-8.5
		c0.4-1,0.9-2.1,2.1-1.9c1.3,0.2,0.9,1.5,1,2.4c0,0.6,0.1,1.2-0.4,1.7c-0.7,0.7,0.2,0.6,0.4,0.7c1,0.5,0.4-0.3,0.4-0.5
		c0.5-1.6,0.4-3.3,0.2-5c-0.1-1.2-0.8-2-2.1-2.3c-1.1-0.2-2,0.2-2.7,1.3c-0.6,1-1.2,2.1-1.7,3.2c-0.3,0.6-0.4,1.5-1.2,1.6
		c-0.9,0.1-1.3-0.8-1.7-1.3c-0.8-1.1-1.6-2.2-2.6-3.2c-1.3-1.3-2.3-1.2-3.3,0.3c-0.8,1.2-1.4,2.5-2.6,3.5c-0.7,0.6-1.3,0.9-2.2,0.6
		c-0.8-0.3-1.1-0.9-1.3-1.7c-1-4.3-3.3-5.5-7.8-5.5c-1.7,0-3.4,0.3-4.8,1.2c-3.6,2.2-7.5,3.2-11.9,2.4c0.1-1.1,0.2-2.4,0.5-3.7
		c0.4-1.4,1.5-2.4,3.1-2.4c1.5,0.1,1.8,1.3,1.9,2.5c0,0.7-0.3,1.4-1.1,1.5c-1.1,0.2-0.9-0.8-1.1-1.5c-0.4,1-0.2,1.6,0.5,2.1
		c0.7,0.5,1.5,0.3,2.3,0c0.9-0.4,0.9-1.2,0.8-1.9c-0.1-2.4-4.1-5.3-6.3-4.8c-2,0.5-2.8,1.8-3.2,3.5c-0.4,2-0.7,2.6-2,2.8
		c-0.1,0-0.1-0.1-0.2-0.1c-2.9,0.8-4-1.2-5.1-2.8c-1.3-1.9-3.2-2.2-5.4-1.7c-2.9,0.6-4,1.6-4.1,3.9c-0.2,3.5-0.2,3.5-4.4,3.7
		c-0.5,0-0.9,0-1.4,0c-3.3,0-3.5-0.1-4.3-2.8c-0.5-1.7-1.4-2.9-3.5-3.3c-2.4-0.4-6.4,2.8-6.4,5.1c0,0.7,0,1.5,1,1.8
		c0.8,0.3,1.7,0.4,2.4-0.1c0.7-0.5,0.9-1.2,0.4-2.1C88.9,14,89.2,15,88,14.8c-0.8-0.1-1.3-0.8-1.3-1.5c0-1.2,0.3-2.5,1.9-2.6
		c1.7-0.2,2.9,0.9,3.4,2.2c0.4,1.2,0.5,2.5,0.8,3.6c-4.6,1-8.8,0.2-12.7-1.8c-1.6-0.8-3.4-1.1-5.2-1c-4.8,0.3-7.2,1.6-8,5.9
		c-0.1,0.8-0.4,1.4-1.2,1.7c-0.9,0.3-1.6,0-2.3-0.5c-1.3-0.9-2-2.2-2.9-3.3c-1.2-1.5-2.2-1.5-3.6-0.2c-1,1-1.8,2.2-2.6,3.3
		c-0.4,0.6-0.8,1.5-1.7,1.4c-0.8-0.1-1-0.9-1.3-1.5c-0.6-1.1-1.3-2.1-2-3.1c-0.7-1-1.7-1.4-2.9-1.1c-1.3,0.3-2,1.2-2,2.4
		c0,1.7,0,3.3,0.5,4.9c0.1,0.2-0.5,1,0.5,0.5c0.2-0.1,1.2-0.1,0.4-0.7c-0.6-0.4-0.5-1.1-0.5-1.7c0-0.9-0.4-2.1,0.9-2.4
		c1.3-0.3,1.9,0.7,2.4,1.7c1.2,2.7,1.4,5.6,1.2,8.4c-0.1,0.7-0.7,1.1-1.5,1.4c-1.8,0.6-3.7,0.9-5.6,0.9c-1.2,0-2.1-0.4-2.5-1.4
		c-0.4-1,0.2-1.7,1-2.3c0.8-0.7,1.8-1.3,3.1-0.8c2.3,0.8,2.6,2.1,0.8,3.4c1.6,0.1,2.4-0.4,2.4-1.8c0.1-1.5-1.4-3-3.3-3.1
		c-1.9-0.1-3.8,0.1-5.7,0.2c-1.4,0.1-2.1,0.5-2.5,1.9c-0.4,1.1,0.4,2.2-0.4,3.2c-1.6-1.7-3.6-2.9-6.2-2c-1.3,0.5-1.9,1.5-1.7,2.8
		c0.2,1.2,1.1,1.7,2.6,1.6c-0.4-0.8-1.3-1.5-0.2-2.3c0.8-0.5,1.4-0.3,2.1,0.1c0.7,0.5,1.1,1.1,1.3,1.8c0.4,1.4,0.9,2.7,1.3,4.1
		c-3.9,0-4.5,2.2-4,5.3c0.2,1.5,1.8,2.5,2.1,3.9c0.3,0.2,0.5,0.3,0.8,0.5c0.4,0,0.8,0.1,1.4,0.1c-0.3-0.6-0.7-1.1-0.9-1.6
		c-0.2-0.6-1.1-1.4,0.2-1.8c1.2-0.3,2.4-0.1,2.6,1.2c0.2,1.6,0.3,3.2-1,4.5c-0.1,1-0.7,1.8-1.9,2c-1.4,0.1-1.3-0.9-1.6-1.7
		c-0.2-0.5-0.8-1-1.2-1.5c-1.5-0.1-1.7-1.4-2.7-2c-1.8-1.2-3.6-1.5-5.6-0.6c-2.1,0.9-2.2,2.4-2,4.1c0.2,1.4,0.7,2.7,2.1,3.9
		c0-0.7,0-1.1-0.1-1.4c-0.2-1.2-0.4-2.6,1.1-3.2c1.6-0.7,2.5,0.6,3.3,1.5c0.3,0.4,0.7,0.7,1,1.1c2.4,2.2,4.6,2.9,7.4,1.7
		c1.6-0.7,2.3-0.4,2.7,0.9c-2.6,1-5.2,0.7-7.9,0c-1.3-0.4-2.9-0.9-3.9,0.7c1.4-0.3,2.7-0.3,4.2,0.7c-2.6,0.2-4.2,1.1-5.3,2.6
		c-0.9,1.2-0.9,2.7-1,4c-0.1,1.4-0.8,1.7-2.3,1.5c-1.4-0.2-2.7-0.5-4.1-0.5c-1.7-0.1-2.7,0.5-2.1,2.2c0.8-1.6,2.3-1.9,4.5-0.9
		c2.3,1,4.5,2.2,6.8,3.4c-1,0.4-1.9,0-2.9-0.2c-1.2-0.3-2.3-0.8-3.6-0.3c1,0.7,2.4,0.9,3.2,1.8c0.6,0.7,1.4,1.4,0.7,2.3
		c-0.6,0.8-1.5,0.1-2.3,0c-1.2,1-2.1-0.2-3-0.5c-1.2-0.4-2.2-1.2-3.6-0.7c3,0.8,5.2,3.1,8.1,3.9c2.2,0.6,2.9,1.3,1.3,2.8
		c0-1.1-0.7-2-2.2-2.3c-1.7-0.4-2.8,0.8-4.1,1.2c-0.5,0.2-0.6,1-0.1,1.2c1.4,0.6,1,1.7,1.2,2.6c0.7,2.3,0.9,4.9,4.9,4.9
		c-2.5,2.7-1.1,4.9,1,7.1c-2.4-0.4-4.5-1.6-6,0.8c-1.9,2.9-2,2.9-4.1,0c-0.2-0.3-0.4-0.7-0.8-0.4c-0.5,0.2-0.5,0.6-0.1,1
		c0.9,0.8,1,1.8,1.5,2.7c0.4,0.8,0.6,1.7,2,1.7c1.2,0,1.9-0.4,2.5-1.4c0.6-1.1,1.5-2.2,3.5-1.7c-1.7,1.1-2,3-3.7,4
		c-0.5,0.3-0.8,0.8-1.1,1.2c-1.1,1.6-0.5,3.6,1.4,4.5c1.9,0.9,3.1,0.5,4.5-1.4c0.4-0.6,0.8-1.1,1.3-1.6c0.3-0.3,0.8-0.7,1.4-0.3
		c0.4,0.3,0.4,0.7,0.1,1.1c-0.9,1.4-0.1,2.9-0.3,4.2c-0.5,2.9,1.8,2.3,3.5,2.5c0.9,0.1,1.8,0,2.9-0.1c-0.4,1.1-1.1,1.5-2.3,1.5
		c-1.2-0.1-2.5-0.1-3.7-0.2c-1-0.1-2,0-2.4,0.8c-0.8,1.5-1.4,3.3-0.4,4.8c0.9,1.4,2.9,1.6,4.7,1.8c0.5,0.1,1.4-1.1,1.6,0.4
		c0.1,1.1-0.5,1.3-1.6,1.4c-0.8,0.1-1.7,0-2.6,0.6c-0.9,0.7-1.3,1.3-1.1,2.4c0.4,1.7,1.2,3.2,3.8,4.1c-1.3-1.5-1.8-2.7-0.4-3.8
		c0.8-0.6,2.1-0.8,2.9,0c1.1,0.9,1.1,2.3-0.1,3c-1.6,0.9-1.4,2-1.2,3.1c0.2,1.4,1.7,0.8,2.6,1.1c0.6,0.2,1.2,0.6,1.7,0.5
		c1.1-0.2,1,0.2,1.1,0.9c0.2,2.5,2.8,3.8,5.5,2.9c0.9-0.3,1.5-0.2,1.9,0.5c0.4,0.9-0.5,0.8-1,0.9c-1.6,0.3-1.1,1.4-1.1,2.2
		c0,0.9,0.5,1.9,1.5,2.1c0.6,0.1,1.5,0,2.2,0c1.8,0,3.6,0.9,5.4,0.1c0.8-0.4,1.4-1.6,2.5-0.9c1.2,0.7,1.8,1.8,1.7,3.1
		c0,0.7-0.3,1.5-1.3,1.4c-1,0-0.7-0.8-0.7-1.4c0-0.3,0.2-0.7-0.5-0.8c-1,1-1.4,2.2-0.4,3.2c1,1.1,2.4,0.6,3.6,0.2
		c1-0.3,1.3-1.3,2.2-1.6c-0.4-1.7,1-3.6-1.1-5.3c2.1,0,3.2,1.1,3.4,2.2c0.3,1.4-0.6,2.6-2.2,3.3c0.1,0.9-0.8,1.4-1.3,2
		c-0.8,1.3-0.9,2.3,0.8,3.2c-0.7-2.5-0.3-2.9,6.1-6.1c0.2,1.6,0.1,3.5,2.8,3.4c1.8,0,3.8,0.1,5.3-1.3c0.3,3.3,2.1,5,5.3,5.3
		c2.4,0.2,4.7-1.1,5.4-3.1c-0.6,0.3-0.9,0.8-1.6,1c-1,0.3-2,0.9-3,0.1c-1.3-1-0.7-2.4-0.7-3.6c0.1-1.3,1.3-0.8,2.1-0.9
		c2.6-0.3,4.6-3.1,3-4.8c-1.3-1.3-2.3-3.5-5.2-3c-0.4,0.1-0.6-0.3-0.6-0.5c0.2-1.7-1.2-3.4,0.4-5.3c2.2-2.5,1.7-5.1-1.2-7.2
		c-0.6-0.5-0.8-0.6-0.2-1.2c1.4-1.4,0.6-3.6,2.1-5.1c0.3-0.3-0.2-0.8-0.6-1c-1.9-0.8-1.5-2.1-1.2-3.5c0.2-1,1.2-1.6,1.5-2.4
		c0.3-0.9,0.1-1.9-0.6-2.9c-0.8-1.2-0.7-2.8-1.8-4c-0.3-0.4-0.3-0.5,0.2-0.9c1.2-0.9,3.3-1,3.3-2.9c0-0.1,0.5-0.2,0.8-0.1
		c3.4,0.2,7.2-2.5,7.3-5.4c0-1.6,0.3-3.1,1.9-4c1.7-1,3.7-1.6,5.8-2c2-0.4,3.5-1,3.1-3.1c-0.2-1,0.2-1.5,1.7-1.4
		c1.1,0.1,2.2-0.4,3.3-0.8c2.5-1,5.2-1.9,5.1-4.9c0-1.5,1.5-1.1,2.2-0.8c1.9,0.6,1.7,2.7,3.2,3.7c0.6,0.4-0.3,1-0.6,1.5
		c-0.7,1.1-0.9,2,1.7,2.2c-2.3-0.8-1.4-1.4-0.5-2.1c1-0.8,2.3-1.5,1-2.9c-0.1-0.1-0.1-0.5,0.1-0.7c0.2-0.3,0.6-0.1,0.8,0
		c0.9,0.5,2,1,2.3,1.9c0.2,0.5-0.4,1.3-0.8,1.8c-0.7,0.8-0.9,1.7-1.1,2.6c-0.4,1.7,0.4,3,2.5,3.7c0-0.3,0.1-0.4,0-0.5
		c-1.5-2.8-1-3.8,2.3-4.8c1-0.3,1.6-0.9,1.6-1.8c0-0.3,0-0.7,0-1.1c1,0,1.3,0.5,1.2,1.4c-0.2,2.1,1.2,2.7,3.1,3
		c1.9,0.3,3.9,0.8,5.5,1.7c1.6,0.9,1.9,2.3,2,3.9c0.2,2.9,3.9,5.5,7.1,5.1c0.3,0,0.8,0,0.8,0.1c0.1,1.9,2.1,1.9,3.3,2.7
		c0.5,0.4,0.5,0.5,0.2,0.9c-0.9,1.3-0.7,2.9-1.4,4.1c-0.6,1.1-0.7,2-0.4,2.9c0.3,0.8,1.3,1.3,1.5,2.3c0.4,1.4,0.9,2.6-0.9,3.6
		c-0.4,0.2-0.8,0.7-0.5,1c1.5,1.4,0.8,3.6,2.2,5c0.5,0.5,0.4,0.7-0.2,1.2c-0.9,0.8-1.9,2.8-2.2,4.1c-0.2,1.1,0.2,0.9,0.4,3.8
		c0.1,2,0,3.4,0,3.4c0,0,0.1-0.3,0-0.3c-0.1-0.1-0.5,0.3-0.6,0.6c-0.3,0.6,0.2,1.1,0.2,1.6c0,1.3-2,1.8-3,3.1
		c-1.5,1.7,0.5,4.4,3,4.6c0.8,0.1,1.9-0.5,2,0.8c0.1,1.2,0.8,2.5-0.4,3.6c-0.9,0.8-1.9,0.3-2.9,0c-0.7-0.1-1-0.6-1.6-0.9
		c0.7,1.9,2.9,3.1,5.2,2.8c3-0.4,4.6-2.2,4.7-5.5c1.5,1.3,3.4,1,5.1,1c2.5-0.1,2.3-1.9,2.4-3.5c6.1,2.8,6.6,3.3,6.1,5.8
		c1.6-0.9,1.5-2,0.6-3.2c-0.5-0.6-1.4-1.1-1.3-2c-1.5-0.6-2.5-1.7-2.2-3.1c0.2-1.1,1.1-2.3,3.1-2.4c-1.9,1.8-0.5,3.6-0.8,5.3
		c0.9,0.3,1.2,1.3,2.2,1.5c1.2,0.3,2.6,0.7,3.4-0.4c0.8-1.1,0.4-2.3-0.6-3.2c-0.6,0.1-0.4,0.5-0.4,0.8c0,0.6,0.3,1.4-0.6,1.5
		c-0.9,0.1-1.2-0.7-1.3-1.4c-0.1-1.3,0.4-2.4,1.4-3.2c1-0.7,1.6,0.4,2.4,0.8c1.7,0.8,3.4-0.3,5.1-0.3c0.7,0,1.5,0,2.1-0.1
		c0.9-0.2,1.3-1.2,1.3-2.1c-0.1-0.9,0.4-2-1.2-2.2c-0.5-0.1-1.4,0-1-0.8c0.3-0.7,0.9-0.9,1.8-0.6c2.6,0.8,5-0.7,5-3.2
		c0-0.7-0.1-1.1,1-1c0.5,0.1,1.1-0.4,1.6-0.6c0.8-0.4,2.3,0.1,2.4-1.3c0.1-1.2,0.3-2.3-1.3-3.1c-1.2-0.6-1.3-2-0.3-3
		c0.8-0.8,2-0.7,2.8-0.1c1.4,1,1,2.3-0.1,3.8c2.4-1,3-2.5,3.3-4.3c0.2-1-0.2-1.7-1.1-2.3c-0.8-0.6-1.7-0.5-2.4-0.5
		c-1.1-0.1-1.6-0.2-1.6-1.3c0.1-1.5,1-0.3,1.5-0.4c1.7-0.3,3.6-0.6,4.3-2c0.8-1.5,0.2-3.3-0.7-4.8c-0.5-0.8-1.4-0.8-2.3-0.7
		c-1.2,0.2-2.3,0.3-3.5,0.4c-1.1,0.1-1.8-0.3-2.2-1.3c1,0,1.9,0.1,2.7-0.1c1.5-0.3,3.7,0.1,3.1-2.7c-0.3-1.3,0.4-2.9-0.5-4.2
		c-0.3-0.4-0.3-0.8,0-1.1c0.5-0.4,1-0.1,1.3,0.3c0.5,0.5,0.9,1,1.3,1.6c1.4,1.9,2.6,2.2,4.3,1.2c1.7-1,2.2-3.1,1.1-4.6
		c-0.3-0.4-0.7-0.9-1.1-1.2c-1.6-0.9-2-2.8-3.7-3.8c1.8-0.6,2.7,0.5,3.4,1.5c0.6,0.9,1.3,1.3,2.4,1.2c1.3-0.1,1.4-1,1.7-1.8
		c0.1-0.3,0.2-0.5,0.2-0.6C202,86.1,202.4,85.3,202.1,85z"/>
</g>
</svg>
